<?xml version="1.0" encoding="utf-8"?>
<!-- Generator: Adobe Illustrator 17.1.0, SVG Export Plug-In . SVG Version: 6.00 Build 0)  -->
<!DOCTYPE svg PUBLIC "-//W3C//DTD SVG 1.1//EN" "http://www.w3.org/Graphics/SVG/1.1/DTD/svg11.dtd">
<svg version="1.1" id="Layer_1" xmlns="http://www.w3.org/2000/svg" xmlns:xlink="http://www.w3.org/1999/xlink" x="0px" y="0px"
	 width="235px" height="46px" viewBox="0 0 235 46" style="enable-background:new 0 0 235 46;" xml:space="preserve">
<style type="text/css">
	.st0{fill:#6A2C90;}
	.st1{fill:#ABADA5;}
</style>
<g>
	<path class="st0" d="M69.8,0c-5.9,0-9.6,3.5-9.6,9.6v26.7c0,6.1,3.7,9.6,9.6,9.6c5.9,0,9.6-3.5,9.6-9.6V9.6C79.4,3.5,75.7,0,69.8,0
		z M69.8,40c-2.4,0-4-0.8-4-2.1c0-0.4,0-12.9,0-14.6c0-1.9,0.9-4.2,1.3-5.4c0.4-1.1,0.8-2.5,1.1-3.6c0.1-0.7,0.2-7.3,0.2-7.4
		c0-0.4,0.3-0.9,1.4-0.9c1.2,0,1.4,0.5,1.4,0.9c0,0.2,0,6.8,0.2,7.4c0.2,1,0.7,2.5,1.1,3.6c0.4,1.2,1.3,3.6,1.3,5.4
		c0,1.7,0,14.2,0,14.6C73.8,39.2,72.2,40,69.8,40z"/>
	<path class="st0" d="M29.1,0.6c-0.4,0-1.9,0-2.3,0c-1,0-1.8,0.8-1.8,1.8l0,0v41.3h0c0,1,0.8,1.8,1.8,1.8c0.4,0,1.9,0,2.3,0
		c1,0,1.8-0.8,1.8-1.8h0V2.4l0,0C30.9,1.4,30.1,0.6,29.1,0.6z"/>
	<path class="st0" d="M45.5,0c-5.7,0-9.4,3.5-9.4,9.6v34l0,0v0c0,1,0.8,1.8,1.8,1.8c0.4,0,1.9,0,2.3,0c1,0,1.8-0.8,1.8-1.8v0l0,0V10
		c0-3,1.4-4.6,3.4-4.6C47.7,5.4,49,7,49,10v33.6l0,0v0c0,1,0.8,1.8,1.8,1.8c0.4,0,1.9,0,2.3,0c1,0,1.8-0.8,1.8-1.8v0l0,0v-34
		C54.9,3.5,51.2,0,45.5,0z"/>
	<path class="st0" d="M19,0.6L19,0.6L19,0.6c-0.4,0-1.7,0-2.1,0c-0.9,0-1.6,0.7-1.8,1.5l0,0l-3.8,26.6c-0.5,3.2-1.3,3.2-1.8,0
		L5.8,2.1l0,0C5.6,1.2,4.9,0.6,4,0.6l0,0h0H1.8c0,0,0,0,0,0C0.8,0.6,0,1.4,0,2.4c0,0.1,0,0.2,0,0.3h0l0,0c0,0,0,0,0,0L6.7,44l0,0
		c0.2,0.8,0.9,1.5,1.8,1.5h0h0h3.7h0c0.9,0,1.6-0.6,1.8-1.5l0,0l6.8-41.3l0,0c0-0.1,0-0.2,0-0.3C20.8,1.4,20,0.6,19,0.6z"/>
</g>
<g>
	<path class="st1" d="M125.3,0.6c-0.4,0-1.9,0-2.3,0c-1,0-1.8,0.8-1.8,1.8c0,0,0,0,0,0h0v17h-7.7v-17c0,0,0,0,0,0
		c0-1-0.8-1.8-1.8-1.8c-0.4,0-1.9,0-2.3,0c-1,0-1.8,0.8-1.8,1.8v0l0,0v41.3h0c0,1,0.8,1.8,1.8,1.8c0.4,0,1.9,0,2.3,0
		c1,0,1.8-0.8,1.8-1.8h0v0c0,0,0,0,0,0c0,0,0,0,0,0V24.8h7.7v18.8l0,0c0,1,0.8,1.8,1.8,1.8c0.4,0,1.9,0,2.3,0c1,0,1.8-0.8,1.8-1.8
		l0,0V2.4h0c0,0,0,0,0,0C127.1,1.4,126.3,0.6,125.3,0.6z"/>
	<path class="st1" d="M153.1,0c-5.9,0-9.5,3.5-9.5,9.6v34l0,0c0,0,0,0,0,0c0,1,0.8,1.8,1.8,1.8c0.4,0,1.9,0,2.3,0
		c1,0,1.8-0.8,1.8-1.8c0,0,0,0,0,0h0V28h3.5c6.8,0,9.6-3.9,9.6-9.8V9.6C162.6,3.5,159,0,153.1,0z M156.6,17.9c0,2.8-1.2,4.6-3.6,4.6
		h-3.5V10c0-3.2,1.4-4.6,3.6-4.6c2.2,0,3.6,1.4,3.6,4.6V17.9z"/>
	<path class="st1" d="M176.4,0c-5.9,0-9.5,3.5-9.5,9.6v34l0,0c0,0,0,0,0,0c0,1,0.8,1.8,1.8,1.8c0.4,0,1.9,0,2.3,0
		c1,0,1.8-0.8,1.8-1.8c0,0,0,0,0,0l0,0V28h3.5c6.8,0,9.6-3.9,9.6-9.8V9.6C186,3.5,182.4,0,176.4,0z M180,17.9c0,2.8-1.2,4.6-3.6,4.6
		h-3.5V10c0-3.2,1.4-4.6,3.6-4.6c2.2,0,3.6,1.4,3.6,4.6V17.9z"/>
	<path class="st1" d="M203.5,0.6L203.5,0.6L203.5,0.6h-4c-6.8,0-9.4,3.9-9.4,9.8v25.3c0,5.9,2.6,9.8,9.4,9.8h4l0,0h0
		c1,0,1.8-0.8,1.8-1.8c0-0.4,0-1.4,0-1.9c0-1-0.8-1.8-1.8-1.8c0,0,0,0,0,0h-3.8c-2.5,0-3.6-1.6-3.6-4.4V25.1h5v0
		c1,0,1.8-0.8,1.8-1.8c0-0.4,0-1.4,0-1.9c0-1-0.8-1.8-1.8-1.8v0h-5v-9c0-2.8,1.2-4.5,3.6-4.5h3.9v0h0c1,0,1.8-0.8,1.8-1.8
		c0-0.4,0-1.4,0-1.9C205.3,1.4,204.5,0.6,203.5,0.6z"/>
	<path class="st1" d="M92.7,17.6c-2.2-2.3-2.8-4.2-2.8-7c0-3.1,1.2-5.2,3.7-5.2c2.2,0,3.6,1.4,3.6,4.6v2.9c0,0,0,0,0,0c0,0,0,0,0,0
		v0h0c0,1,0.8,1.8,1.8,1.8c0.4,0,1.8,0,2.2,0c1,0,1.8-0.8,1.8-1.8h0V9.6c0-6.1-3.4-9.6-9.5-9.6c-6.7,0-9.6,4.5-9.6,10.5
		c0,4.4,0.9,7.3,4.1,10.7l6.7,7.2c2.2,2.3,2.8,4.2,2.8,7c0,3.4-1.4,5.2-4.1,5.2c-2.1,0-3.8-1.4-3.8-4.6v-2.9h0c0-1-0.8-1.8-1.8-1.8
		c-0.4,0-1.8,0-2.2,0c-1,0-1.8,0.8-1.8,1.8h0v3.3c0,6.3,3.9,9.6,9.6,9.6c6.7,0,10-4.5,10-10.5c0-4.4-0.9-7.3-4.1-10.7L92.7,17.6z"/>
	<path class="st1" d="M136.5,0.6c-0.4,0-1.9,0-2.3,0c-1,0-1.8,0.8-1.8,1.8c0,0,0,0,0,0l0,0v41.3l0,0c0,1,0.8,1.8,1.8,1.8
		c0.4,0,1.9,0,2.3,0c1,0,1.8-0.8,1.8-1.8l0,0V2.4l0,0c0,0,0,0,0,0C138.3,1.4,137.5,0.6,136.5,0.6z"/>
	<path class="st1" d="M227.6,16.5v-6.4c0-6.1-3.3-9.5-9.2-9.5s-9.3,3.5-9.3,9.5v33.6h0c0,1,0.8,1.8,1.8,1.8c0.4,0,1.8,0,2.2,0
		c1,0,1.8-0.8,1.8-1.8l0,0V25.9h3.2c2.4,0,3.6,1.8,3.6,4.6v13.2h0c0,1,0.8,1.8,1.8,1.8c0.4,0,1.8,0,2.2,0c1,0,1.8-0.8,1.8-1.8h0
		V30.5c0-3.4-1.2-6.3-3.7-7.3C226,22,227.6,19.5,227.6,16.5z M221.7,16.5c0,2.8-1.2,4.6-3.6,4.6h-3.2V10.4c0-3.1,1.3-4.6,3.5-4.6
		c2.2,0,3.3,1.4,3.3,4.6V16.5z"/>
</g>
<g>
	<path class="st1" d="M231.4,6.6c-1.8,0-3.3-1.5-3.3-3.3c0-1.8,1.5-3.3,3.3-3.3c1.8,0,3.3,1.5,3.3,3.3
		C234.7,5.1,233.2,6.6,231.4,6.6z M231.4,0.6c-1.5,0-2.7,1.2-2.7,2.7c0,1.5,1.2,2.7,2.7,2.7c1.5,0,2.7-1.2,2.7-2.7
		C234.1,1.8,232.9,0.6,231.4,0.6z M233.1,5.1h-0.8l-0.7-1.3h-0.9V5h-0.7V1.4h1.7c0.8,0,1.3,0.5,1.3,1.2c0,0.5-0.3,0.9-0.8,1.1
		L233.1,5.1z M231.8,3.2c0.3,0,0.6-0.1,0.6-0.6S232.2,2,231.8,2h-1.1v1.1C231.1,3.2,231.8,3.2,231.8,3.2z"/>
</g>
</svg>
